<svg width="20" height="20" viewBox="0 0 20 20" fill="none" xmlns="http://www.w3.org/2000/svg">
<path d="M7.77049 4.52434H2.52459C2.23487 4.52434 2 4.7592 2 5.04893V6.09811C2 6.38783 2.23487 6.6227 2.52459 6.6227H7.77049C8.06021 6.6227 8.29508 6.38783 8.29508 6.09811V5.04893C8.29508 4.7592 8.06021 4.52434 7.77049 4.52434Z" fill="#2270B1"/>
<path d="M9.86885 8.72105H2.52459C2.23487 8.72105 2 8.95592 2 9.24564V10.2948C2 10.5845 2.23487 10.8194 2.52459 10.8194H9.86885C10.1586 10.8194 10.3934 10.5845 10.3934 10.2948V9.24564C10.3934 8.95592 10.1586 8.72105 9.86885 8.72105Z" fill="#2270B1"/>
<path d="M11.9672 12.9178H2.52459C2.23487 12.9178 2 13.1526 2 13.4424V14.4915C2 14.7813 2.23487 15.0161 2.52459 15.0161H11.9672C12.2569 15.0161 12.4918 14.7813 12.4918 14.4915V13.4424C12.4918 13.1526 12.2569 12.9178 11.9672 12.9178Z" fill="#2270B1"/>
<path d="M17.7371 12.3934H16.6848V4.52459C16.6856 4.45604 16.6729 4.38801 16.6472 4.32443C16.6216 4.26086 16.5836 4.203 16.5354 4.15421C16.4873 4.10542 16.4299 4.06667 16.3667 4.0402C16.3034 4.01373 16.2356 4.00006 16.167 4H15.6466C15.5076 4 15.3743 4.0552 15.2759 4.15346C15.1775 4.25173 15.1222 4.38503 15.1221 4.52407L15.1184 12.3934H14.0661C14.0314 12.3934 13.997 12.4002 13.965 12.4135C13.933 12.4267 13.9039 12.4462 13.8795 12.4708C13.8551 12.4954 13.8357 12.5246 13.8226 12.5567C13.8096 12.5888 13.803 12.6232 13.8032 12.6578C13.8032 12.692 13.81 12.7259 13.8232 12.7574C13.8365 12.789 13.8559 12.8175 13.8803 12.8414L15.7358 14.9571C15.7826 14.9953 15.8412 15.0161 15.9016 15.0161C15.962 15.0161 16.0206 14.9953 16.0674 14.9571L17.9228 12.8414C17.9473 12.8175 17.9667 12.789 17.9799 12.7574C17.9932 12.7259 18 12.692 18 12.6578C18.0002 12.6232 17.9936 12.5888 17.9805 12.5567C17.9675 12.5246 17.9481 12.4954 17.9237 12.4708C17.8992 12.4462 17.8702 12.4267 17.8382 12.4135C17.8061 12.4002 17.7718 12.3934 17.7371 12.3934Z" fill="#2270B1"/>
<path d="M17.7371 12.3934H16.6848V4.52459C16.6856 4.45604 16.6729 4.38801 16.6472 4.32443C16.6216 4.26086 16.5836 4.203 16.5354 4.15421C16.4873 4.10542 16.4299 4.06667 16.3667 4.0402C16.3034 4.01373 16.2356 4.00006 16.167 4H15.6466C15.5076 4 15.3743 4.0552 15.2759 4.15346C15.1775 4.25173 15.1222 4.38503 15.1221 4.52407L15.1184 12.3934H14.0661C14.0314 12.3934 13.997 12.4002 13.965 12.4135C13.933 12.4267 13.9039 12.4462 13.8795 12.4708C13.8551 12.4954 13.8357 12.5246 13.8226 12.5567C13.8096 12.5888 13.803 12.6232 13.8032 12.6578C13.8032 12.692 13.81 12.7259 13.8232 12.7574C13.8365 12.789 13.8559 12.8175 13.8803 12.8414L15.7358 14.9571C15.7826 14.9953 15.8412 15.0161 15.9016 15.0161C15.962 15.0161 16.0206 14.9953 16.0674 14.9571L17.9228 12.8414C17.9473 12.8175 17.9667 12.789 17.9799 12.7574C17.9932 12.7259 18 12.692 18 12.6578C18.0002 12.6232 17.9936 12.5888 17.9805 12.5567C17.9675 12.5246 17.9481 12.4954 17.9237 12.4708C17.8992 12.4462 17.8702 12.4267 17.8382 12.4135C17.8061 12.4002 17.7718 12.3934 17.7371 12.3934Z" fill="#2270B1"/>
<path d="M17.7371 12.3934H16.6848V4.52459C16.6856 4.45604 16.6729 4.38801 16.6472 4.32443C16.6216 4.26086 16.5836 4.203 16.5354 4.15421C16.4873 4.10542 16.4299 4.06667 16.3667 4.0402C16.3034 4.01373 16.2356 4.00006 16.167 4H15.6466C15.5076 4 15.3743 4.0552 15.2759 4.15346C15.1775 4.25173 15.1222 4.38503 15.1221 4.52407L15.1184 12.3934H14.0661C14.0314 12.3934 13.997 12.4002 13.965 12.4135C13.933 12.4267 13.9039 12.4462 13.8795 12.4708C13.8551 12.4954 13.8357 12.5246 13.8226 12.5567C13.8096 12.5888 13.803 12.6232 13.8032 12.6578C13.8032 12.692 13.81 12.7259 13.8232 12.7574C13.8365 12.789 13.8559 12.8175 13.8803 12.8414L15.7358 14.9571C15.7826 14.9953 15.8412 15.0161 15.9016 15.0161C15.962 15.0161 16.0206 14.9953 16.0674 14.9571L17.9228 12.8414C17.9473 12.8175 17.9667 12.789 17.9799 12.7574C17.9932 12.7259 18 12.692 18 12.6578C18.0002 12.6232 17.9936 12.5888 17.9805 12.5567C17.9675 12.5246 17.9481 12.4954 17.9237 12.4708C17.8992 12.4462 17.8702 12.4267 17.8382 12.4135C17.8061 12.4002 17.7718 12.3934 17.7371 12.3934Z" fill="#2270B1"/>
<path d="M17.7371 12.3934H16.6848V4.52459C16.6856 4.45604 16.6729 4.38801 16.6472 4.32443C16.6216 4.26086 16.5836 4.203 16.5354 4.15421C16.4873 4.10542 16.4299 4.06667 16.3667 4.0402C16.3034 4.01373 16.2356 4.00006 16.167 4H15.6466C15.5076 4 15.3743 4.0552 15.2759 4.15346C15.1775 4.25173 15.1222 4.38503 15.1221 4.52407L15.1184 12.3934H14.0661C14.0314 12.3934 13.997 12.4002 13.965 12.4135C13.933 12.4267 13.9039 12.4462 13.8795 12.4708C13.8551 12.4954 13.8357 12.5246 13.8226 12.5567C13.8096 12.5888 13.803 12.6232 13.8032 12.6578C13.8032 12.692 13.81 12.7259 13.8232 12.7574C13.8365 12.789 13.8559 12.8175 13.8803 12.8414L15.7358 14.9571C15.7826 14.9953 15.8412 15.0161 15.9016 15.0161C15.962 15.0161 16.0206 14.9953 16.0674 14.9571L17.9228 12.8414C17.9473 12.8175 17.9667 12.789 17.9799 12.7574C17.9932 12.7259 18 12.692 18 12.6578C18.0002 12.6232 17.9936 12.5888 17.9805 12.5567C17.9675 12.5246 17.9481 12.4954 17.9237 12.4708C17.8992 12.4462 17.8702 12.4267 17.8382 12.4135C17.8061 12.4002 17.7718 12.3934 17.7371 12.3934Z" fill="#2270B1"/>
<path d="M17.7371 12.3934H16.6848V4.52459C16.6856 4.45604 16.6729 4.38801 16.6472 4.32443C16.6216 4.26086 16.5836 4.203 16.5354 4.15421C16.4873 4.10542 16.4299 4.06667 16.3667 4.0402C16.3034 4.01373 16.2356 4.00006 16.167 4H15.6466C15.5076 4 15.3743 4.0552 15.2759 4.15346C15.1775 4.25173 15.1222 4.38503 15.1221 4.52407L15.1184 12.3934H14.0661C14.0314 12.3934 13.997 12.4002 13.965 12.4135C13.933 12.4267 13.9039 12.4462 13.8795 12.4708C13.8551 12.4954 13.8357 12.5246 13.8226 12.5567C13.8096 12.5888 13.803 12.6232 13.8032 12.6578C13.8032 12.692 13.81 12.7259 13.8232 12.7574C13.8365 12.789 13.8559 12.8175 13.8803 12.8414L15.7358 14.9571C15.7826 14.9953 15.8412 15.0161 15.9016 15.0161C15.962 15.0161 16.0206 14.9953 16.0674 14.9571L17.9228 12.8414C17.9473 12.8175 17.9667 12.789 17.9799 12.7574C17.9932 12.7259 18 12.692 18 12.6578C18.0002 12.6232 17.9936 12.5888 17.9805 12.5567C17.9675 12.5246 17.9481 12.4954 17.9237 12.4708C17.8992 12.4462 17.8702 12.4267 17.8382 12.4135C17.8061 12.4002 17.7718 12.3934 17.7371 12.3934Z" fill="#2270B1"/>
<path d="M17.7371 12.3934H16.6848V4.52459C16.6856 4.45604 16.6729 4.38801 16.6472 4.32443C16.6216 4.26086 16.5836 4.203 16.5354 4.15421C16.4873 4.10542 16.4299 4.06667 16.3667 4.0402C16.3034 4.01373 16.2356 4.00006 16.167 4H15.6466C15.5076 4 15.3743 4.0552 15.2759 4.15346C15.1775 4.25173 15.1222 4.38503 15.1221 4.52407L15.1184 12.3934H14.0661C14.0314 12.3934 13.997 12.4002 13.965 12.4135C13.933 12.4267 13.9039 12.4462 13.8795 12.4708C13.8551 12.4954 13.8357 12.5246 13.8226 12.5567C13.8096 12.5888 13.803 12.6232 13.8032 12.6578C13.8032 12.692 13.81 12.7259 13.8232 12.7574C13.8365 12.789 13.8559 12.8175 13.8803 12.8414L15.7358 14.9571C15.7826 14.9953 15.8412 15.0161 15.9016 15.0161C15.962 15.0161 16.0206 14.9953 16.0674 14.9571L17.9228 12.8414C17.9473 12.8175 17.9667 12.789 17.9799 12.7574C17.9932 12.7259 18 12.692 18 12.6578C18.0002 12.6232 17.9936 12.5888 17.9805 12.5567C17.9675 12.5246 17.9481 12.4954 17.9237 12.4708C17.8992 12.4462 17.8702 12.4267 17.8382 12.4135C17.8061 12.4002 17.7718 12.3934 17.7371 12.3934Z" fill="#2270B1"/>
</svg>
