<svg xmlns="http://www.w3.org/2000/svg" width="20" height="20" viewBox="0 0 20 20" fill="currentColor">
	<path d="M14.4192 6.35859C14.1263 6.06569 13.6515 6.06569 13.3586 6.35859C13.0657 6.65148 13.0657 7.12635 13.3586 7.41925L14.4192 6.35859ZM17 10L17.5303 10.5304C17.8232 10.2375 17.8232 9.76259 17.5303 9.4697L17 10ZM13.3586 12.5808C13.0657 12.8737 13.0657 13.3486 13.3586 13.6415C13.6515 13.9344 14.1263 13.9344 14.4192 13.6415L13.3586 12.5808ZM3 9.25003C2.58579 9.25003 2.25 9.58581 2.25 10C2.25 10.4142 2.58579 10.75 3 10.75L3 9.25003ZM13.3586 7.41925L16.4697 10.5304L17.5303 9.4697L14.4192 6.35859L13.3586 7.41925ZM16.4697 9.4697L13.3586 12.5808L14.4192 13.6415L17.5303 10.5304L16.4697 9.4697ZM17 9.25003L3 9.25003L3 10.75L17 10.75V9.25003Z"/>
</svg>
