<svg width="20" height="20" viewBox="0 0 20 20" fill="none" xmlns="http://www.w3.org/2000/svg">
<path d="M7.77049 4.52434H2.52459C2.23487 4.52434 2 4.7592 2 5.04893V6.09811C2 6.38783 2.23487 6.6227 2.52459 6.6227H7.77049C8.06021 6.6227 8.29508 6.38783 8.29508 6.09811V5.04893C8.29508 4.7592 8.06021 4.52434 7.77049 4.52434Z" fill="#64748B"/>
<path d="M9.86885 8.72105H2.52459C2.23487 8.72105 2 8.95592 2 9.24564V10.2948C2 10.5845 2.23487 10.8194 2.52459 10.8194H9.86885C10.1586 10.8194 10.3934 10.5845 10.3934 10.2948V9.24564C10.3934 8.95592 10.1586 8.72105 9.86885 8.72105Z" fill="#64748B"/>
<path d="M11.9672 12.9178H2.52459C2.23487 12.9178 2 13.1526 2 13.4424V14.4915C2 14.7813 2.23487 15.0161 2.52459 15.0161H11.9672C12.2569 15.0161 12.4918 14.7813 12.4918 14.4915V13.4424C12.4918 13.1526 12.2569 12.9178 11.9672 12.9178Z" fill="#64748B"/>
<path d="M17.7372 6.6227H16.6848V14.4915C16.6857 14.5601 16.6729 14.6281 16.6473 14.6917C16.6216 14.7553 16.5836 14.8131 16.5355 14.8619C16.4873 14.9107 16.43 14.9495 16.3667 14.9759C16.3035 15.0024 16.2356 15.0161 16.1671 15.0161H15.6467C15.5076 15.0161 15.3743 14.9609 15.2759 14.8627C15.1776 14.7644 15.1222 14.6311 15.1221 14.4921L15.1184 6.6227H14.0661C14.0314 6.62277 13.9971 6.61596 13.9651 6.60268C13.933 6.5894 13.904 6.5699 13.8795 6.54532C13.8551 6.52073 13.8358 6.49154 13.8227 6.45944C13.8096 6.42734 13.803 6.39297 13.8033 6.3583C13.8032 6.3241 13.81 6.29024 13.8233 6.25871C13.8365 6.22718 13.8559 6.19861 13.8804 6.1747L15.7359 4.05902C15.7827 4.02085 15.8412 4 15.9016 4C15.962 4 16.0206 4.02085 16.0674 4.05902L17.9229 6.1747C17.9473 6.19861 17.9667 6.22718 17.98 6.25871C17.9932 6.29024 18 6.3241 18 6.3583C18.0003 6.39297 17.9937 6.42734 17.9806 6.45944C17.9675 6.49154 17.9482 6.52073 17.9237 6.54532C17.8993 6.5699 17.8702 6.5894 17.8382 6.60268C17.8062 6.61596 17.7718 6.62277 17.7372 6.6227Z" fill="#64748B"/>
</svg>
