<svg width="1024" height="1024" viewBox="0 0 1024 1024" fill="none" xmlns="http://www.w3.org/2000/svg">
<rect x="16" y="16" width="992" height="992" rx="64" fill="white"/>
<rect x="16" y="16" width="992" height="992" rx="64" stroke="#017EFF" stroke-width="32"/>
<rect x="150" y="150" width="352" height="352" rx="48" fill="#AED6FF"/>
<rect x="150" y="522" width="352" height="352" rx="48" fill="#AED6FF"/>
<rect x="522" y="150" width="352" height="352" rx="48" fill="#AED6FF"/>
<rect x="522" y="522" width="352" height="352" rx="48" fill="#AED6FF"/>
<path d="M944 192C944 253.856 893.856 304 832 304C770.144 304 720 253.856 720 192C720 130.144 770.144 80 832 80C893.856 80 944 130.144 944 192Z" fill="white"/>
<path fill-rule="evenodd" clip-rule="evenodd" d="M832 304C893.856 304 944 253.856 944 192C944 130.144 893.856 80 832 80C770.144 80 720 130.144 720 192C720 253.856 770.144 304 832 304ZM883.899 173.899C889.367 168.432 889.367 159.568 883.899 154.101C878.432 148.633 869.568 148.633 864.101 154.101L818 200.201L799.899 182.101C794.432 176.633 785.568 176.633 780.101 182.101C774.633 187.568 774.633 196.432 780.101 201.899L808.101 229.899C813.568 235.367 822.432 235.367 827.899 229.899L883.899 173.899Z" fill="#16A34A"/>
</svg>
