<svg width="24" height="24" viewBox="0 0 24 24" fill="currentColor" xmlns="http://www.w3.org/2000/svg">
<path d="M14.5734 4.75969C14.1829 4.36917 13.5497 4.36917 13.1592 4.75969C12.7686 5.15021 12.7686 5.78338 13.1592 6.1739L14.5734 4.75969ZM20.3996 12.0001L21.1067 12.7072C21.2943 12.5197 21.3996 12.2653 21.3996 12.0001C21.3996 11.7349 21.2943 11.4806 21.1067 11.293L20.3996 12.0001ZM13.1592 17.8264C12.7686 18.2169 12.7686 18.85 13.1592 19.2406C13.5497 19.6311 14.1829 19.6311 14.5734 19.2406L13.1592 17.8264ZM3.59961 11.0001C3.04732 11.0001 2.59961 11.4478 2.59961 12.0001C2.59961 12.5524 3.04732 13.0001 3.59961 13.0001L3.59961 11.0001ZM13.1592 6.1739L19.6925 12.7072L21.1067 11.293L14.5734 4.75969L13.1592 6.1739ZM19.6925 11.293L13.1592 17.8264L14.5734 19.2406L21.1067 12.7072L19.6925 11.293ZM20.3996 11.0001L3.59961 11.0001L3.59961 13.0001L20.3996 13.0001V11.0001Z"/>
</svg>
